# xmcd
#
# Track frame offsets:
#	150
#	11182
#	39462
#	80078
#	136909
#	175340
#	236521
#	268426
#	299163
#
# Disc length: 4370 seconds
#
# Revision: 10
# Processed by: cddbd v1.5.2PL0 Copyright (c) Steve Scherf et al.
# Submitted via: audiograbber 1.83.01
#
DISCID=8a111009
DTITLE=Lex van Someren - AUM
DYEAR=1999
DGENRE=Spiritual
TTITLE0=OM NAMAH SHIVAY 1
TTITLE1=OM NAMAH SHIVAY 1
TTITLE2=OM MANI PADME HUM neu
TTITLE3=OM
TTITLE4=OM MANI PADME HUM trad.
TTITLE5=AUM
TTITLE6=TIBET, OM
TTITLE7=OM NAMAH SHIVAY
TTITLE8=AMEN
EXTD=
EXTT0=
EXTT1=
EXTT2=
EXTT3=
EXTT4=
EXTT5=
EXTT6=
EXTT7=
EXTT8=
PLAYORDER=
